# xmcd
# 
# Track frame offsets:
#     150
#     21460
#     40545
#     64390
#     86330
#     106160
#     127410
#     146498
#     165058
#     181915
#     201083
# 
# Disc length: 2966
# 
# Revision: 6
# Processed by: cddbd v1.5.2PL0 Copyright (c) Steve Scherf et al.
# Submitted via: fre:ac v1.0.31
# 
DISCID=8f0b940b
DTITLE=Richard Marx - Repeat Offender
DYEAR=1989
DGENRE=Rock
TTITLE0=Nothin' You Can Do About It
TTITLE1=Satisfied
TTITLE2=Angelia
TTITLE3=Too Late To Say Goodbye
TTITLE4=Right Here Waiting
TTITLE5=Heart On The Line
TTITLE6=Real World
TTITLE7=If You Don't Want My Love
TTITLE8=That Was Lulu
TTITLE9=Wait For The Sunrise
TTITLE10=Children Of The Night
EXTD=
EXTT0=
EXTT1=
EXTT2=
EXTT3=
EXTT4=
EXTT5=
EXTT6=
EXTT7=
EXTT8=
EXTT9=
EXTT10=
PLAYORDER=
